<?xml version="1.0" standalone="no"?>
<!DOCTYPE svg PUBLIC "-//W3C//DTD SVG 20010904//EN"
 "http://www.w3.org/TR/2001/REC-SVG-20010904/DTD/svg10.dtd">
<svg version="1.0" xmlns="http://www.w3.org/2000/svg"
 width="525.000000pt" height="525.000000pt" viewBox="0 0 525.000000 525.000000"
 preserveAspectRatio="xMidYMid meet">
<metadata>
Created by potrace 1.11, written by Peter Selinger 2001-2013
</metadata>
<g transform="translate(0.000000,525.000000) scale(0.100000,-0.100000)"
fill="#000000" stroke="none">
<path d="M2417 4702 c-125 -125 -227 -232 -227 -237 0 -6 302 -312 671 -680
634 -632 749 -751 810 -835 75 -102 157 -276 189 -400 62 -239 60 -500 -6
-720 -61 -200 -166 -368 -330 -526 -271 -261 -594 -374 -977 -342 -313 26
-578 150 -807 378 -259 257 -384 555 -384 915 0 268 56 462 199 680 69 107 77
115 477 515 l347 347 -217 217 -216 217 -381 -381 c-373 -374 -436 -443 -532
-586 -134 -197 -232 -429 -279 -659 -26 -128 -38 -262 -38 -415 1 -108 10
-256 19 -290 2 -8 7 -35 10 -60 24 -176 118 -425 232 -613 56 -93 182 -252
270 -341 307 -311 650 -486 1078 -551 91 -14 441 -13 540 1 386 55 709 197
986 435 324 279 536 612 629 988 47 191 55 260 55 496 0 175 -6 271 -20 335
-2 14 -8 41 -11 60 -29 171 -115 395 -213 560 -111 186 -168 248 -910 993
-399 400 -728 727 -731 727 -3 0 -108 -102 -233 -228z"/>
<path d="M2295 2225 c0 -322 4 -585 8 -585 4 0 128 69 275 154 147 84 371 213
497 285 127 73 233 136 237 140 5 4 -52 41 -125 83 -72 42 -262 151 -422 243
-159 92 -315 181 -345 198 -30 17 -68 39 -85 49 -16 10 -32 18 -35 18 -3 0 -5
-263 -5 -585z"/>
</g>
</svg>
